<mxfile host="app.diagrams.net" modified="2024-02-22T13:26:33.286Z" agent="Mozilla/5.0 (Windows NT 10.0; Win64; x64) AppleWebKit/537.36 (KHTML, like Gecko) Chrome/121.0.0.0 Safari/537.36 Edg/121.0.0.0" etag="0cjkGmo3jD_Xw92f3KVZ" version="23.1.5" type="device">
  <diagram name="Page-1" id="2ZFrLZvWlCgrlt-IZ_l4">
    <mxGraphModel dx="1386" dy="793" grid="1" gridSize="10" guides="1" tooltips="1" connect="1" arrows="1" fold="1" page="1" pageScale="1" pageWidth="850" pageHeight="1100" math="0" shadow="0">
      <root>
        <mxCell id="0" />
        <mxCell id="1" parent="0" />
        <mxCell id="fjb_J6AeZTx8FS_fv3e4-8" style="edgeStyle=orthogonalEdgeStyle;rounded=0;orthogonalLoop=1;jettySize=auto;html=1;exitX=1;exitY=0.25;exitDx=0;exitDy=0;entryX=0;entryY=0.5;entryDx=0;entryDy=0;" edge="1" parent="1" source="fjb_J6AeZTx8FS_fv3e4-1" target="fjb_J6AeZTx8FS_fv3e4-3">
          <mxGeometry relative="1" as="geometry" />
        </mxCell>
        <mxCell id="fjb_J6AeZTx8FS_fv3e4-15" style="edgeStyle=orthogonalEdgeStyle;rounded=0;orthogonalLoop=1;jettySize=auto;html=1;exitX=1;exitY=0.75;exitDx=0;exitDy=0;entryX=0;entryY=0.5;entryDx=0;entryDy=0;" edge="1" parent="1" source="fjb_J6AeZTx8FS_fv3e4-1" target="fjb_J6AeZTx8FS_fv3e4-13">
          <mxGeometry relative="1" as="geometry" />
        </mxCell>
        <mxCell id="fjb_J6AeZTx8FS_fv3e4-1" value="" style="whiteSpace=wrap;html=1;fillColor=#dae8fc;strokeColor=#6c8ebf;" vertex="1" parent="1">
          <mxGeometry x="120" y="120" width="160" height="520" as="geometry" />
        </mxCell>
        <mxCell id="fjb_J6AeZTx8FS_fv3e4-2" value="Flutter Web User Interface" style="text;html=1;align=center;verticalAlign=middle;whiteSpace=wrap;rounded=0;" vertex="1" parent="1">
          <mxGeometry x="160" y="365" width="80" height="30" as="geometry" />
        </mxCell>
        <mxCell id="fjb_J6AeZTx8FS_fv3e4-9" style="edgeStyle=orthogonalEdgeStyle;rounded=0;orthogonalLoop=1;jettySize=auto;html=1;exitX=1;exitY=0.5;exitDx=0;exitDy=0;entryX=0;entryY=0.5;entryDx=0;entryDy=0;" edge="1" parent="1" source="fjb_J6AeZTx8FS_fv3e4-3" target="fjb_J6AeZTx8FS_fv3e4-5">
          <mxGeometry relative="1" as="geometry" />
        </mxCell>
        <mxCell id="fjb_J6AeZTx8FS_fv3e4-3" value="" style="rounded=0;whiteSpace=wrap;html=1;fillColor=#ffe6cc;strokeColor=#d79b00;" vertex="1" parent="1">
          <mxGeometry x="370" y="180" width="190" height="140" as="geometry" />
        </mxCell>
        <mxCell id="fjb_J6AeZTx8FS_fv3e4-4" value="VROOM Endpoint&lt;br&gt;(Route Optimization Engine Wrapper)" style="text;html=1;align=center;verticalAlign=middle;whiteSpace=wrap;rounded=0;" vertex="1" parent="1">
          <mxGeometry x="393.75" y="225" width="142.5" height="50" as="geometry" />
        </mxCell>
        <mxCell id="fjb_J6AeZTx8FS_fv3e4-12" style="edgeStyle=orthogonalEdgeStyle;rounded=0;orthogonalLoop=1;jettySize=auto;html=1;exitX=1;exitY=0.5;exitDx=0;exitDy=0;entryX=0;entryY=0.5;entryDx=0;entryDy=0;" edge="1" parent="1" source="fjb_J6AeZTx8FS_fv3e4-5" target="fjb_J6AeZTx8FS_fv3e4-10">
          <mxGeometry relative="1" as="geometry" />
        </mxCell>
        <mxCell id="fjb_J6AeZTx8FS_fv3e4-5" value="" style="rounded=0;whiteSpace=wrap;html=1;fillColor=#e1d5e7;strokeColor=#9673a6;" vertex="1" parent="1">
          <mxGeometry x="650" y="180" width="170" height="140" as="geometry" />
        </mxCell>
        <mxCell id="fjb_J6AeZTx8FS_fv3e4-6" value="Valhalla Routing Engine" style="text;html=1;align=center;verticalAlign=middle;whiteSpace=wrap;rounded=0;" vertex="1" parent="1">
          <mxGeometry x="692.5" y="235" width="85" height="30" as="geometry" />
        </mxCell>
        <mxCell id="fjb_J6AeZTx8FS_fv3e4-10" value="" style="rounded=0;whiteSpace=wrap;html=1;fillColor=#d5e8d4;strokeColor=#82b366;" vertex="1" parent="1">
          <mxGeometry x="900" y="180" width="170" height="140" as="geometry" />
        </mxCell>
        <mxCell id="fjb_J6AeZTx8FS_fv3e4-11" value="Geofabrik&lt;br&gt;(Geographic Map Data)" style="text;html=1;align=center;verticalAlign=middle;whiteSpace=wrap;rounded=0;" vertex="1" parent="1">
          <mxGeometry x="912.5" y="235" width="145" height="30" as="geometry" />
        </mxCell>
        <mxCell id="fjb_J6AeZTx8FS_fv3e4-13" value="" style="rounded=0;whiteSpace=wrap;html=1;fillColor=#fff2cc;strokeColor=#d6b656;" vertex="1" parent="1">
          <mxGeometry x="370" y="445" width="190" height="130" as="geometry" />
        </mxCell>
        <mxCell id="fjb_J6AeZTx8FS_fv3e4-14" value="Nominatin Geocoding&lt;br&gt;(Reverse Location Search)" style="text;html=1;align=center;verticalAlign=middle;whiteSpace=wrap;rounded=0;" vertex="1" parent="1">
          <mxGeometry x="388.75" y="485" width="152.5" height="50" as="geometry" />
        </mxCell>
        <mxCell id="fjb_J6AeZTx8FS_fv3e4-17" value="Trailset Route Optimization Framework Architecture" style="text;html=1;align=center;verticalAlign=middle;whiteSpace=wrap;rounded=0;" vertex="1" parent="1">
          <mxGeometry x="428.5" y="650" width="349" height="30" as="geometry" />
        </mxCell>
        <mxCell id="fjb_J6AeZTx8FS_fv3e4-20" value="" style="shape=image;verticalLabelPosition=bottom;labelBackgroundColor=default;verticalAlign=top;aspect=fixed;imageAspect=0;image=data:image/png,iVBORw0KGgoAAAANSUhEUgAAAeEAAACSCAYAAAByi3LVAAAAAXNSR0IArs4c6QAAAARnQU1BAACxjwv8YQUAAAAJcEhZcwAADsMAAA7DAcdvqGQAACEfSURBVHhe7Z3b8y1HVcd/CUYuBkWqIIcH8A+AcMiraClKLjyY0qckmATyglZxEQkkoUqfoMokEJWLVcpLyAVy8iSFD+SiICXwSk4Cf4DwQBKqEgTkIko8n9l7/c78+sxMr9XTM3tm7++natXaa/dMT+89PbN6dff0XPT888+/cCTcXHTRRdtPQog+dJ0I4ePirRZOXnhh02ZB90mabvYatJGzhRiC+mJSy16DNqK2OFwUCRegVr4QeXSdCJFHTngP4GbXbln32WvQRmqn5NKF6MPqm+G116ANb7oRtUU95IQLUYUUwoeuFSH60ZhwIbQMvZJu32evQRs5WwiDuhGRdJ9Sewna8KYbqS32F0XChah1L4QfXS9CdCMnvEK4obVbyn32ErURtYWohdVHw2uvURs5OyWXLuohJzwCVVIh/Oh6EeJCNCY8AlqLXZKmee0laCNqC5GDOmP1xj53SZreZy9RG950I7XF4aBIeCRq3QvhR9eLECeRE95DuNG1W9ZeewnaiNpC1MLqo9Fnp9roS1+CNmrbohw54QqoMgrhR9eLEOfRmHAFaBVGJN3Hay9BG1FbCIO6MSS5bdJ0s1OdS1+iNqK2WC+KhCuglr0QcXTdCKFIuAq0SueU9Jheew3aiNpifXAOlyhp2cxOdS59DdrI2Sm5dOFHkXAl1KoXIo6uG3HoKBKuBC1Dk1J7CdqI2kKU0K5/JqX2GrThTe8jly7WgyLhiqhVL0QcXTfikJET3kO4qbVbyl57DdqI2kKUYvXPKLXXoI2pbXEeOeHKqKIJUYauHXGIaEy4MrT4cpJu57WXoI3athDUiRqS5mX2PmojZ4vloki4MmrNC1GOrh9xaMgJ7yHcyNot4T57idqI2kLUwuqj4bVTbfSlL0Eb3nQjtVNy6eI8csIToMonRDm6fsQhoTHhCaAV2Jb0uz471bn0XWgjagvhhbozJOk2XnsN2vCmi/WjSHgi1JoXYhy6hsQhICd8AHAza7ecS+0laCNqCzEXVl8Ns1Nt9KUvURvedGOsvc/ICU/IoVQiIaZC15DYdzQmPCG05jySbttnr0EbUVuILqgnUUn389r7oI2xtpgPRcITola8EOPRdST2GTnhPYSbVrtl67WXoA1vupHaQkyF1Uej1F6DNqa2Dxk54YlRRROiDrqWxD6iMeGJocWXSvq9116DNnK2EFGoQ+361idputn7oI2onZJLF/OhSHgG1IIXog66lsS+ISd8gHAja7eEvfYStOFN7yOXLtbDE09+a/vJx6nLXt3IVFh97CNNN/sQtZGzU3Lpa0JOeCb2pcIIsQTsenr6mWePrrv5Xc1nL++88fqjW266fmsJsVvkhBcINxhaeobXnlo/8+z3Xdu1tZGzU3LpUaaMfMTuwAlf/44/21o+cMLvvPG6rbWc62sObURtMR1ywjOy9kr92QfPnJOHt9a6+Pu7P3L0pje+YWuJfYDrSZGwWDuaHT0jtC5z8rnHLmnk3R9/6bHc+cCLj/7j7IuO/vPpTYs2J+mxvLZHC7EUqJNl9fJ83a8hTY4T2PuojbH2PiEnPDO03lP5+lOXHF17+6VHr7zmFUfvuedljXz+8V89lrsefMnRtbddevSmd/x6s913n31RZz4m6XG8tkcLsX7O1/0a0uQ4gb2P2hhr7xNywjNDi86EyPaPPvRrjXzt7K9stxiG7U7f/PImQv7OMxcftxDn0kLsA9RnE7P3QRvedCO1xXzICc8MLTqE6JfI9mtP+pxvChHyu+95aRMVg7UUp9ZClMDY7WZOwZmjO+/51NEjj385/GhRTajPJmbvgza86UZqi/mQE54ZWpyM7xL9joWomHy8Y8UmUGKvmbT8a/89awHn+/7b/rqZwcykPgQHjCPmezTbzMv5ur0LaUrQ8b1Jmm72IWjDm27k7CUjJzwzdCEzvlsLyy83TtwWKLHXTFr+tf+eNUCki/MdinhxyDjjeaPi83V7F9KUoON7kzTd7EPQhjfdyNlLRo8ozQwOs7QLeojbb/xZI0AFpCVYW9/3uU0ks0b0iNK8RJ/f5TnuM/f909byEz0OpM8Jp1h9N0rtNWhjrF0TG7rwcs2Vf7Dqa1tOuCKM037jnIMlOgXTr7vsl42GnANm2xuu/EWjX3fql0ffefrio68/9aKm69ny6+Ps/T86caza6Dlh4aUkuuVmeset791aPkqdsJ4TXi7Um7/40F9trTyf+NhHV31tqzt6JDheJljZ40XYOFoEp4mYnXPARLJP3PfDc/qn5xzxz4/efPkvGv3pD/zk6It3//jod974v9stu7nrgRc3LdScQIm9ZtLyr/33LBkcY0n38nxd0ufr9i6kKYHDTnUufZ90lHS/0nx2gZxwITy7i/PF8eYiVA+33/jzoztu+nnTxdMlv3XqhaN/+dh/D0a6NAA8Y8NQYq+ZtPxr/z1LptSZljrvOOfr9i6kKYHDTnUufZ90lHS/0nx2gZxwEKJZol6ccA3nC0S4RL+03totwi6biHjIETPzGtr71dRC5HjiyW9vPy0X6rOJ1051Ln0N2hhri3I0JhzAuptrQ4Sb62puw/PBn3+suxybiHozQas2zGR95PGvbK0yiHaQCDVePcdYo17iMA9j5g4wOStynjQmvH8c2piwnLCTqWY1w3OP/GD7yQcNARoEXbz9yv85+vStP9laZdCV027pem2PvveBM80s6wg40Kvf+hZX/jltRG3hh5soE7NK+PdH/nn7yUeZE76uccRLxeprH2m62ak2+tKXqs8+9e2wEz59+eub/Q3Lz8jZKbn0mqg72sGUDpiuZU52RBgf7uM7z17cuU9EoMT26UaF8ec/rI2oLfyU9jgwO3oeztfdJUpTwo7vTdJ0s1OdS1+yjpLuF7VTSstRgpxwhikdMDCuXLLiVR+ve/VmvDjdfjm6UWFsfyO1xXLACUcfNYJrrnzL9tPUnLyeUmm2mMDeB21E7ZRc+iEhJzyAPW40B7S8vDL0sofXXrap3O3tzV6GblQY299IbbEsogso0EU837jeyesplWaLCex90EbUTsmlHxJywj0QofaNu+agi5mxWRMmXQ3NaH7onLOnZeiVhx6/ZLtnF937tKXZquN7kzTd7Dq6UWG8+RtRW9SHaHhoZSpj/jHak/V9adKUsIK9Zh0l3S9qp5SWowQ54R5KHDAOl8U2ECZHmfBY0W3bJSW7sMedaB3m5K4HN68w7GPoWWMT6PreJE03u45uVBhv/kbUFvWhWxrnyoznNDImje9I28UkKc7/UiUtX6m9Zh0l3S9qp5SWowQ54Q7ogo50QxPpMsMZh9sX8eKgh6Jhxp5tbBjQJmZ/7rFLzjnhFzd2F+Tf3n6JWhweNkbM0qE4XWZAo3f52Bj1sU/SdK+9D9rwphupLfzICXcQiYJxwES6Hm4454j7ILplBS6LdNsrX/FM8LW3X5otF88IWwtuqVocNrtyun1QL1NJv/fa+6ANb7qR2sKPnHBCZCWsiAMGnPBQNAxEuqdvfvmx/ObVv9EszjE0GQvIl3WmaZGOFej63iRN77O7daPC5PP1aSNqi/2E87w2Sctdy16SjuLNN6eNqJ0SSZcTTmCSlAecXsQBw8ZR9kfDKd7GAPzDB3/atEZrCHR9b5Km99ndulFh8vn6tBG1xX7D+V6LpOWtZS9JR/Hmm9NG1E6JpMsJt8DpeR1fxJm2ab/3txY0BnjjEq0ra2HZ57a9DN2oMLa/kdq7hFWbWNJzs1zjRu6851ONTPlCAlsClGNwfPSUx9tnqE9eSbevZe9Sf+/pZ5q686XH/q1Z1Q79pce+fPTNs081dcybj+FNN1L7kNCylS3oikZyENEyA3oM3mPliK47vWtK1hVmAk/N1ZQoQwSOnY5lmuNlLW0+9xFdC3kI7zGBYzIbmQUwup6/jfwH7B99hrekQdD1P+fgf6i5bGUugumDcnzz7Lcaffapze/GhvZvuuI052QZL6Hn/FBGT13gN1D205e/4ehtV9W5Fvmvuuqxt0zGHbe+7+g1p2L1Zgn/vyEn3IK3I3kg8qzh+FgM5O7AGHQbGgLMxp7CAXMjardMvbZHz712tNG2uWl3Xfx9MKvXLlr2oxGBM/QQXQs5heNtouyyFyIAN/22MybPiONif85BBMpMT0CE9v/sJfpboOZzyTgyGkXe+mBYI+lNb3x98/+Oweq70WejiXgpb7Qh2sbKzkswLnv1q07kH9HU6THlGAON49ecumxrnbw/QNQeg7qjt0QmY9VyfPZcce7xpRRmQZ+9/0dHv3v6/5qKUFugxPbpRoXx539SG6ldAi8l4IbvveGOublunP2Z5nhjHDBQXsq+qxveGqG+DMkzz36/OS/8r1EHDNa4oqHy+9f8SZMXeXYdKyfgsWkAb+rTuHpgZeclC1Y328eJ6F2RHn+sPQY54S3eCVlvniDytAU90IwX4+TbThkbR006zyPzqkJaYibQZS9TN2pVcNPhZhvtXiXKKYEbXA3nm0J+5MvvEcNQX/uE8dLrbn7XaGfWhrxwavc+8FBjc5xamvNdu7xAvuRJ3lZuw45v5OxDRk54i3d8tvakKgOni6MlfxwyETIO9/lH/6sZ92X2859e9YvjFhjapM9epm7UqiidYBXtWgWb0DUV1qAQeaizqdCVO9X52Ti1hxunxuv8gGOO0eRDflM2vMib/4VI27DjGzn7kJETPoe3KzrSZVwLWoxLk7RcXnujGxXmwnzG6TmITDIy51jStSmmgbrSFmYK33nPJ7ep00FdICr+m49/8oIyeATQlDfyXt4xbBoQZ8KR/K7wli+qjYgtJ3wO7xKVpY8ljYVW45IkLZPX3uhGhbkwn3F6aiLjweaAS6JtMT3UGcZr5+5BsGEJjh8RIALeRY8HkTwRsZUjp3eFt3xRbURsOeFzfNcZCU/VFZ2DVlNE0n289jy6UWFsfyNn75rIeDDdmzhisUyoW+2u1jmxWennr5+8tkh6VxARE4VDrry7YtfHbyMnfI6vOyLhXXRFt6Hl5JV0e689j25UGNvfyNm7xjserAh4+eDUdjFM8ImPffToitOXN58vvI769Rxd5jmsYZkr767Y9fHbyAmfw9MdvWsnTMttLkmPV2p360aFyecb01PjGQ/G+coBL5/as9Q98Czz6ctf39TXiDAma4uElEC9ZTEOhlNKJhYaOGAiYsoEfXpX5MpTK90Ysg/eCXsnZU3xaFIUWm9zSHqsUrtbNypMPt+YnhLveHDNMbvIJDARI9pQ4lywuhQLghDNIqzqhHPznCf2veWmG5q6GhHGgUsaDJSJsn710S8cPXz/Z5qyfviD72vKbXZJ/WLZSysP5Uu1/U9dEmEonz7pKk+bWunGkH3wK2bhhHmFYA7Gg3c1JpzCCWy3pLz2EvTYFbMMy6+E2s/KchNAbBx4sxLS8I2E7roxXZwcj1WwcPh8BvtNOA0eGakVZXOMQ14xi8U0vFB+nBf107D6D5T3iSdxlmc66+DQ/jldUq/5L3D4ufxLV9qibuLILR9jyKbeRsa0+b/SepPmv2QOPhL2zoxeQiQMVrHQJl57GbpRYWx/I7XnhpsLjsleUI8D4caO5BwJN8pSB8xx7eX4HMscMPAZwWnaNlGnJk4ScWpEWDgEoH6atG2WSiQiZru0IcC5G9p/SBMFRx0wES4OGHL5U26WqbTyeaFMOFXLx8jZY6md35QcvBP2zoyeYo3mEmjhLV3Scp60GzNMO58aegxEDw999h9PdDun+Q4dp3SMkeNFHKs5bMoryog4tsgYLmsuc144n9aQolHXta1H6PqNQL2gJ4V9Ic2vLe10fiORbQTP2HCqo3jz3bU22t8fvBNew8zoFFp5S5a0jCftxgzTzqeGLsUi3jSfnN2mJArmBh3tEjY2EboccQnmID3QXRtd/5kIk+gSx8ZM6K5tPBIZeiASbx8L2nmlkqbznxBFe2GiWHQFsCjefHetjfb3B++EPROzluaEaT0NSbqN155HNyqM7W9E7RrgyMZ275Y4YI7ZjrpLkCOeHqJmW/+Z+tcn0LaJipG+9D7bNFGwN2I3B9qVT0Qz/4Hudy/e54ZNR8nlk7NzjN1/iIN2wjhgjxNeynhwG1pQfZKme+15dKPC2P5G1B4LjjAdwyuBSTkRrEu5BjhyjRHH4P+PRMM4Q4YbmCT1l7fz5qqHmyiQ+mgCbTuVNL3PNm3vL/Zgdbgrn4gmgo9Ew/QSgDf/KLl8cnaOsfsPcfCRsIclOmFaYruS9Phee6MbFebCfMbpKLd/4D3bTxtK84nOWK4ZveJMFA3HYew0Cs7YXk5PdMxLFFgLmjcwERVSf2pJ5LlgFvL4vav/uIrwm7zwfyCUF3I6ijffXWuj/f1BO2Hv6wuXMikrhdbYLiQ9ttfe6EaFuTCfcTpK+wXgUJKP3YgijO2GTiESVjQco8Y54LzbY1s8H06kfNff8pjaV5q6NEaidWpXUE7KCzkdxZvvrrXR/n5nTphHgz5/zgnyCkEE29s9XAvPzOiljQe3oRXVJWma155HNyqM7W9E7THUcoS7dsBG6XuODxV6EGo3XKgLjOUSmVqUbBEyoE367LZeA0TsfeUf+3vS/WrbUzKrE8bBvueelzWLY1x726XNZ3PC2HxvaTjoKR0yeXOMHEt2wkBLKpX0e689j25UGNvfiNpjqOW0ok54KmepSDgOM9MjY8MRqBdEyUTIRMcWMZpAlw0263gtpOXv01HS/WrbU3Ls5aZuCZjz9ThXomK2R7yLaUTxdkUvcTy4DedpaZKW66TdmGHa+dTQEbj5pvtF7RKmuulPle8+w39Wa4LcEETHjCGzQhV1KCdstx42ZW4+tX6D2W0dpS+fNehjbzhVSwCHa5FtFBww+yK1o2LP88Hw2oVHwsC5WpKkZTppN2aYdj41dJR0v6gN0UhYznJZcD5Kn9WOQD0hKk5nVXfJ0898f7vX8rFnqKH9G8xu6yh9+axBT9ffew4cJ9Hv2GiW/Ylcazli8vOUia7ot+/oRf4RaE1FJN3Ha9fRjQrjzd/I2Wsg6rTF9DBO317laio494wTW6RL/TVp2+c+NfZaaJd/SEeJ5utNN8baQ0zmhM0B14JxY28Xcg66uT3csAIHbNCi8kq6vdeuoxsVxpu/kbN3wVIiWzn3cVjX9NSPe3GeGCMG6q9J2z512clZ+0NQ7l0KtMs/pKNE8/WmG2PtISZ7ixJdyGMj4C7Gvs3IJoJ5eO6RH2w/iTZUsHZLL2KzeMGYtyiRz1h9wzv/POSIuOGyZi77G5ZfBJ4Rjry+kJt8jQVCUuxRGS9Ef9Fu2OgxgP85OmmM8zj1W5SG4Pic15pvrWqD8+K/7/tfInXK+//addJHml7LNk03fPQtSnZ9tvNZi54kEvZ299LVi0P99K0/aTTP4+ZmI+NAS7ulKZPXAa+hGzqFkzqHpMeK2Y0Zpp1PDR0l3a8kH4sGvNgqQ7UpfYGEuBDOKY0UHBzd1GjsWjPQcfKP/mv/s8Tp8+tDDOXTFuj63iRNr2W3dZS+fNagJ3HCue5enO0T9/3w2PmaM/7i3T9uvss54pJuaZwv0bmX3174rOguaFUh7c8Rex7dqDC2vxG114hFWTUhv0gvgPCDQ8b5Erm2nfJQJOvBnq81AfvMmtPexl3kOd1d6yjpfrl8a9spkfTqTpgodShSNWfb52jNQQ85Yu/MZqAsOF9vBAyUYY2RMLRbWCZeex7dqDC2vxG1l4DdpCPUjloVBc+HnW+LlO3d09GxZBpN7bczgX1GXnPK54TJJ/o2o13pKOl+uXxr2ymR9GNvGfX0fQxFqThWnLCHIUdNt3KuS5pHonC+JbOzicbXCudt2bItaBD2ramjRPPts6PrEBO5sv5wDcirdmR9iODMSs8Jjpnx6OgM66HnhhkP9XLvA5t3++5SIGdHaeezNn3syaKevo+hKDUy2xgHPLRmM871lde8onG0Jnxn35cu9OHpDl86nLvlyraQQdi3po4SzbfPLumWrDHph/0jk8JEP0w4o0eB/7O0ax8HHGmQ8TwwdahL3nbVH263yrNp1D3cmc9cAkN2pHECTAJs57M2PUl3dB/eKNjwjMviaE1yXeE51twN3YbW1ZDktknT++wy3agw/vxPaiO1d4V1UUbgRr+58ZdFX3LA9eB/tAaR/a84gRJizub89ZcK48KROkV5229ygnZ+Zg9pInPqpXf7qI7AWHf0fcWl2qiVDrM54ZLocs6IlGPRBb4v0MLqk2h6n12mGxXGn/9JbaT2Lok+7gObLtCHQ47Yuk3lgOvQdsDGmAZSZPb7Facvb+pwnzDu7MXKbPtCOy+z+zT/AY+F8RgRY9X2fS1N4+SK0/5Ghf0etCf/MdqolQ7HHjP11KX0Oc6SKHUuJ8xx1jwO3AXnc1eSHv+k3Zhh2vnU0FFy+UTskmjYwBFzA+SmnzoEw5zvZjtNxKoBN/m+/xva54X/fwjSuxz6ENSfIeFlH5HImjLw9qbIu42JflnFy57hJQ8+p+PM0LZTSdO77Mg4N1hZEN5Mde8DDzXl6tPt4+5aV1+sgzHZPmebm/WcwuQq7+pWpdAFvU8RcEraAts13KSijoHIMdLSz8HNMnejbMPM1lKn2QfHpxxjsRuv6ciN3Qv/fTR636fFOkrqrDW02m/CoqxPPPntonP01Ue/sP3Uj70aMQLl5PzeclP//0G5yZv/oQtPHlH4j8zZTwELfNS+pkup3h095GSjz/d+o2BiVQR7XGqfoaWVSvq9166jGxXGm7+Rs3cNN64ayx5yg9zc3DXzeQpoTJT0JnBOrCFiQj4l5wgHR/01gbZtgsMvacTgXImK338bUe1DTRmJejdR40NNWp8DBsujZoTJOHekSzpK3xiy0Vcuw5tuDNnVnfD1AxObIqtdMdGq5M1LXnC+0Ylia4VouC3pd167jm5UGG/+Rs5eAtxcl9IaFxeCM4pG81NgjTXqcLu+p8LqWR/+4Pua9Cg4UiY40VAgArWhjEgDBEfcXut6jOa3XP3Wer1fKX3PSxt95TK86caQfXENT95m6LEi4FGinCPGAbNdbWzslzWhc+XcJzhXy5FtoYK08+izIzpKNF9POtEw3bxosTyW0LNAQ83qB3UmJ0SQJRP/akG3NZHz0HPNOQF0SWTv5XtPb2Z2t4+X6lx6LX1xDU/eBkc39JgPDphx476X+0eXl/RAeYh8GZPeh0eQSuB8LUO2BQrSzqPPjugo0Xy96dxgGQsVy4Nx4xpDBqUMDVlQf/qE54anePGHF6JqIuKusnkE0GMi+xyU0d7XDF3axOypdPXuaLjtxp9lJ2Ax4Qpn3F5og0U2cstLki8OlYiW7mQEx9oW0hCcLlEvnw8p8u2CFpdX0u29tk83Kow//2G9RLjZzvGOWhGnZHWrWgz1klCfh4SFQHbVgGAs9+/u+shxWaBUE9kziWoKlrKW9iROGEfpXR2rvdCGB3OoOFtzwuZ0TcwZ5xoChwatLo+k23ptn25UGH/+w3qpcLMlIqb7USwLOzdzOjXvTHHqdZcQRd5y0w2zR8Rvu4p1sj96oiwwRvM/TPE7mDjnOf7U+tjzmWc2UjsKzrF29DlFnocE53T3si1MEPatqaNE843awM2eG/3UN3tNBouzOTebqHjK/88cvvcY1KMhmaM+AeUmcr/9A+/tLMcYAX5D7R4JuqQZuwY7zi70sRM2z2ykdgl0G9dymhb1inFwXncr24IEYd+aOko036httG/2U0TF3Mx2OXFn7ZiT5D+s7YzN0ZTmS53qEiLih+//TFOvpoB8yZ+x6K7jjxVAE93TNV3zd0yx4ldUT9Id3abGo0CH9DjR1LRbYH2Sppud6lx6t25UGH/+w3otWGRRK/Iy5zHVjfjQoIHE/8n5wXmWnqNNo+u6KueGOt6u721hbNWcfI3nb62xyOsZWaSjfdwpNb+D423+9+ubcoyBZ5vBe/yx2mh/X33FrD4Y9737wZc02gvjup5JXiKOtcTmhnGYyJq5MOYm1wXPftIV5WVogsxcUF4emYm+Uclu8u2omrwiz7/yqEjUQVDG6CIXJf9z9LcAk5am6GWwc8SqWHw2acPvQ+zxm5r1uk3u+qZcPE7E9ZiWcYhNfbq+GftdCpSfSVZnn9pcF9Hfc8et08zA9nLRc8899wInrPHIrRMXtb3ghHndIatndU3GovuaBT/Qcr6HidVHw2uvQRtjbG4yjGVZVxo2r7o7ddmrGhumvMGLGJyfaONiTigfjQerR2iwJTepR9Z4WANcJ1wvRmqn5Lbvs6PauCB9rkhYLA8qgRBiv9F1vmwmHxMWy4VWWImk+3rtNWgjaguxVKirEUn3mcqW3mhFwgeOWslCHA663pfH7GPCQlh96yNN99pr0EbUFkKUYdefUWqn2ihNP9aKhAWVQQhxWOi6XwYaExZNa6wt6Xdee43aiNpCrB3qtNVr+9xlp5Km99nSPq1IWByjlrEQh4mu/d1xwZhwThs5W4ipsPpoeO01aCNqCyGmwa5PI7VTcttfYCsSFm2oIEKIw0X3gHnRmLA4AS20nKTbee1U59KXoI2oLcRaoS5PKekxvHaqx6YvRSsSFheglrAQAnQvmB49JywWh9VHw2uvQRu1bSGED64brp8+oumjbUXCogsqihBCGLonTIPGhEUntNT6JE332mvQRtQWYt+hzlu9t89ddipputc+FK1IWAyi1q8QogvdG+ow2XPCqS3EXFh9NcxOtdGXvkRtRG0hxDJRJCyy6GYuhBhC94hyNCYsshBVRSTdx2uvURs5W4h9hvpeS9L85rJ3pRUJCxdq6QohvOh+4UdrR4vVYfXR8Npr0IY33UhtIcRusOvViyJhEUI3eiFEBN0zhtGYsAhhLTy0SS17DdqI2kIcKlwLben6ri1pei071bn0ubQiYRFGLVshRCm6f5wkPCac00bUFqIWVh+NUnuN2ojaQojdoEhYFKEbuBCiBod+LzkeE6ZlLIQX6kuppPt77TVoo7YtxL5CXa8paZ5z2an2pisSFqNQRCyEqMmh3VO0drRYPVY/jVJ7jdrI2UKIZaJIWIxGN3shxFTs+/1FzwmL0RB1tSX9rpa9RG2MtYUQ3XCtRCS3T5peyy7VioRFNRQRCyHmYJ/uNXpOWBwcVl8Nr70P2ojaQohpUCQsqqIbtxBibtZ83zl2wmoJi7mgXlG/DK+daqMvfYnaiNopuXQhxDRw3XH99ZGmZ21FwmIK5CCEELtkLfcgjQmLvcPqo1HLXoM2onZKLl0IUQdFwmIydBMXQiyJJd6T9JywmAyiqS5J07z2GrThTTdythBiPFxXYyXNZ5z9wtH/A/Ri9Vj69tA2AAAAAElFTkSuQmCC;" vertex="1" parent="1">
          <mxGeometry x="471.22" y="20" width="263.56" height="80" as="geometry" />
        </mxCell>
      </root>
    </mxGraphModel>
  </diagram>
</mxfile>
